<svg fill="#000000" xmlns="http://www.w3.org/2000/svg" viewBox="0 0 50 50" width="50px" height="50px"><path d="M 8.21875 2 C 7.105469 2.089844 6.027344 2.734375 5.4375 3.78125 C 5.140625 4.304688 4.996094 4.898438 5 5.5 L 5 34.25 L 6.5625 35.34375 C 6.988281 35.578125 7.511719 35.578125 7.9375 35.34375 L 11 33.59375 L 11 18.5 C 11.015625 16.578125 12.578125 15.015625 14.5 15.03125 C 15.089844 15.035156 15.675781 15.210938 16.1875 15.5 L 25 20.40625 L 25 18.53125 C 25 17.527344 25.804688 16.71875 26.8125 16.71875 C 27.125 16.71875 27.445313 16.785156 27.71875 16.9375 L 34.1875 20.5625 L 38.34375 18.25 L 10.1875 2.4375 C 9.558594 2.082031 8.886719 1.945313 8.21875 2 Z M 14.375 17 C 13.902344 17.035156 13.4375 17.304688 13.1875 17.75 C 13.058594 17.976563 12.996094 18.238281 13 18.5 L 13 32.5 L 25 25.75 L 25 22.6875 L 15.21875 17.1875 C 14.953125 17.035156 14.660156 16.976563 14.375 17 Z M 27 18.84375 L 27 31.15625 L 38 25 Z M 40.375 19.375 L 36.21875 21.71875 L 39.46875 23.53125 C 40.277344 23.984375 40.546875 25.003906 40.09375 25.8125 C 39.941406 26.082031 39.738281 26.316406 39.46875 26.46875 L 37.625 27.46875 L 41.78125 29.8125 L 45.625 27.65625 C 47.097656 26.824219 47.613281 24.941406 46.78125 23.46875 C 46.507813 22.984375 46.109375 22.585938 45.625 22.3125 L 45.625 22.34375 Z M 25 28 L 13 34.75 L 13 46 L 39.75 31 L 35.59375 28.625 L 27.71875 33.0625 C 26.84375 33.558594 25.746094 33.25 25.25 32.375 C 25.09375 32.097656 24.996094 31.785156 25 31.46875 Z M 11 35.875 L 8.90625 37 C 7.847656 37.601563 6.558594 37.601563 5.5 37 L 5 36.6875 L 5 44.53125 C 5.007813 46.445313 6.550781 47.976563 8.46875 47.96875 C 9.066406 47.964844 9.667969 47.828125 10.1875 47.53125 L 11 47.0625 Z"/></svg>